HIERARCHY
ROOT Hips
{
	OFFSET 0.00000 0.00000 0.00000
	CHANNELS 6 Xposition Yposition Zposition Zrotation Yrotation Xrotation 
	JOINT LHipJoint
	{
		OFFSET 0 0 0
		CHANNELS 3 Zrotation Yrotation Xrotation
		JOINT LeftUpLeg
		{
			OFFSET 1.77779 -1.88989 0.48267
			CHANNELS 3 Zrotation Yrotation Xrotation
			JOINT LeftLeg
			{
				OFFSET 2.53442 -6.96327 0.00000
				CHANNELS 3 Zrotation Yrotation Xrotation
				JOINT LeftFoot
				{
					OFFSET 2.71068 -7.44755 0.00000
					CHANNELS 3 Zrotation Yrotation Xrotation
					JOINT LeftToeBase
					{
						OFFSET 0.17992 -0.49431 2.22524
						CHANNELS 3 Zrotation Yrotation Xrotation
						End Site
						{
							OFFSET 0.00000 -0.00000 1.14687
						}
					}
				}
			}
		}
	}
	JOINT RHipJoint
	{
		OFFSET 0 0 0
		CHANNELS 3 Zrotation Yrotation Xrotation
		JOINT RightUpLeg
		{
			OFFSET -1.58469 -1.88989 0.48267
			CHANNELS 3 Zrotation Yrotation Xrotation
			JOINT RightLeg
			{
				OFFSET -2.60386 -7.15404 0.00000
				CHANNELS 3 Zrotation Yrotation Xrotation
				JOINT RightFoot
				{
					OFFSET -2.73334 -7.50979 0.00000
					CHANNELS 3 Zrotation Yrotation Xrotation
					JOINT RightToeBase
					{
						OFFSET -0.25618 -0.70384 2.21822
						CHANNELS 3 Zrotation Yrotation Xrotation
						End Site
						{
							OFFSET -0.00000 -0.00000 1.16381
						}
					}
				}
			}
		}
	}
	JOINT LowerBack
	{
		OFFSET 0 0 0
		CHANNELS 3 Zrotation Yrotation Xrotation
		JOINT Spine
		{
			OFFSET 0.03410 2.01612 -0.22230
			CHANNELS 3 Zrotation Yrotation Xrotation
			JOINT Spine1
			{
				OFFSET 0.03465 2.03012 0.00937
				CHANNELS 3 Zrotation Yrotation Xrotation
				JOINT Neck
				{
					OFFSET 0 0 0
					CHANNELS 3 Zrotation Yrotation Xrotation
					JOINT Neck1
					{
						OFFSET -0.00219 1.70459 0.20857
						CHANNELS 3 Zrotation Yrotation Xrotation
						JOINT Head
						{
							OFFSET 0.02518 1.72339 -0.22179
							CHANNELS 3 Zrotation Yrotation Xrotation
							End Site
							{
								OFFSET 0.00282 1.74122 -0.09823
							}
						}
					}
				}
				JOINT LeftShoulder
				{
					OFFSET 0 0 0
					CHANNELS 3 Zrotation Yrotation Xrotation
					JOINT LeftArm
					{
						OFFSET 3.36358 1.00547 -0.37661
						CHANNELS 3 Zrotation Yrotation Xrotation
						JOINT LeftForeArm
						{
							OFFSET 5.06507 -0.00000 0.00000
							CHANNELS 3 Zrotation Yrotation Xrotation
							JOINT LeftHand
							{
								OFFSET 3.60196 -0.00000 0.00000
								CHANNELS 3 Zrotation Yrotation Xrotation
								JOINT LeftFingerBase
								{
									OFFSET 0 0 0
									CHANNELS 3 Zrotation Yrotation Xrotation
									JOINT LeftHandIndex1
									{
										OFFSET 0.45035 -0.00000 0.00000
										CHANNELS 3 Zrotation Yrotation Xrotation
										End Site
										{
											OFFSET 0.36308 -0.00000 0.00000
										}
									}
								}
								JOINT LThumb
								{
									OFFSET 0 0 0
									CHANNELS 3 Zrotation Yrotation Xrotation
									End Site
									{
										OFFSET 0.36862 -0.00000 0.36862
									}
								}
							}
						}
					}
				}
				JOINT RightShoulder
				{
					OFFSET 0 0 0
					CHANNELS 3 Zrotation Yrotation Xrotation
					JOINT RightArm
					{
						OFFSET -3.50159 0.80383 -0.71526
						CHANNELS 3 Zrotation Yrotation Xrotation
						JOINT RightForeArm
						{
							OFFSET -5.36394 -0.00000 0.00000
							CHANNELS 3 Zrotation Yrotation Xrotation
							JOINT RightHand
							{
								OFFSET -3.58035 -0.00000 0.00000
								CHANNELS 3 Zrotation Yrotation Xrotation
								JOINT RightFingerBase
								{
									OFFSET 0 0 0
									CHANNELS 3 Zrotation Yrotation Xrotation
									JOINT RightHandIndex1
									{
										OFFSET -0.66375 -0.00000 0.00000
										CHANNELS 3 Zrotation Yrotation Xrotation
										End Site
										{
											OFFSET -0.53513 -0.00000 0.00000
										}
									}
								}
								JOINT RThumb
								{
									OFFSET 0 0 0
									CHANNELS 3 Zrotation Yrotation Xrotation
									End Site
									{
										OFFSET -0.54330 -0.00000 0.54330
									}
								}
							}
						}
					}
				}
			}
		}
	}
}
MOTION
Frames: 16
Frame Time: .0083333
-0.2559 18.1886 13.7809 -5.1770 -0.1529 -4.6810 0.0000 0.0000 0.0000 -14.1459 -0.3484 -12.6056 12.8235 18.7175 68.5763 0.0156 -6.9912 10.3315 0.0919 -1.9550 -5.3814 0.0000 0.0000 0.0000 30.7222 9.8924 -7.8909 -2.0831 -9.0371 25.9116 -0.2725 -0.4304 -10.0260 -0.2299 -3.0862 8.5187 3.2046 -0.6834 10.8440 2.9815 -0.3066 -0.2702 1.3793 -0.2038 -6.3828 -1.4141 -3.2863 -17.9816 1.1601 -4.4850 21.5936 0.0259 -2.0583 9.8914 0.0000 -0.0000 0.0000 -86.4586 -0.6639 23.0488 14.5894 -23.5710 -3.0598 -0.0000 0.0000 -2.9754 29.5328 26.6936 14.2784 -7.1250 0.0000 -0.0000 -0.5962 60.0020 -0.2183 0.0000 -0.0000 0.0000 90.2800 2.7109 -4.5721 -9.5374 16.0127 -1.3445 0.0000 0.0000 13.9288 -16.4636 20.3951 -5.8800 7.1250 -0.0000 -0.0000 7.6899 -8.9423 6.4611
-0.2481 18.2018 13.9492 -4.8740 -0.3778 -4.7029 0.0000 0.0000 0.0000 -14.5105 -0.3432 -13.6651 12.9474 18.7631 68.9621 -0.0387 -6.5050 8.2117 0.1241 -2.2706 -6.2540 0.0000 0.0000 0.0000 30.4926 9.5532 -7.1561 -2.0583 -8.9866 25.7533 -0.3052 -0.0274 -10.4460 -0.2176 -3.0028 8.2866 3.0628 -0.5632 10.7703 2.8715 -0.1788 -0.1991 1.3201 -0.1374 -6.2650 -1.6221 -3.2773 -17.7290 1.3240 -4.4566 21.5939 0.1255 -2.0451 9.8536 0.0000 0.0000 0.0000 -86.6159 -0.5503 22.7367 14.3775 -23.2718 -2.9756 -0.0000 0.0000 -3.0199 29.6952 26.4576 14.2560 -7.1250 0.0000 -0.0000 -0.3224 59.7876 -0.1164 0.0000 0.0000 0.0000 90.0658 2.9333 -2.6895 -9.6938 16.2592 -1.3880 0.0000 0.0000 12.1535 -16.1366 20.6602 -5.8287 7.1250 -0.0000 -0.0000 7.9118 -8.7128 6.6879
-0.2440 18.1983 14.1126 -4.6301 -0.6004 -4.8096 0.0000 0.0000 0.0000 -14.7958 -0.3311 -14.6542 13.0027 18.7831 69.1338 -0.0804 -6.2077 6.1518 0.1417 -2.4263 -6.6855 0.0000 0.0000 0.0000 30.3534 9.3406 -6.4385 -2.0591 -8.9880 25.7578 -0.3469 0.1964 -11.0586 -0.1805 -2.7364 7.5458 2.9131 -0.4218 10.8174 2.7705 -0.0192 -0.0659 1.2709 -0.0549 -6.1499 -1.6821 -3.3079 -17.7984 1.3390 -4.4860 21.6580 0.1349 -2.0606 9.8917 0.0000 0.0000 0.0000 -86.7216 -0.2830 22.6922 14.4498 -23.3740 -3.0042 -0.0000 0.0000 -3.1209 29.6126 24.7691 13.3942 -7.1250 0.0000 -0.0000 0.1204 57.9360 0.0381 0.0000 0.0000 0.0000 89.9838 3.0833 -0.6522 -10.0761 16.8585 -1.4969 0.0000 0.0000 10.3792 -16.1927 20.3452 -5.7651 7.1250 -0.0000 -0.0000 7.8612 -9.0265 6.5945
-0.2421 18.1931 14.2617 -4.8696 -0.9269 -4.7810 0.0000 0.0000 0.0000 -14.4418 -0.4500 -15.9283 13.0216 18.7899 69.1926 -0.0932 -5.9168 4.7205 0.1141 -2.1776 -5.9968 0.0000 0.0000 0.0000 30.7816 9.4504 -5.9044 -2.0709 -9.0122 25.8336 -0.3779 0.1516 -11.5601 -0.1437 -2.4431 6.7320 3.2219 -0.2544 10.9938 2.7982 0.2523 -0.0329 1.0839 0.0689 -6.2140 -1.6527 -3.3876 -17.9826 1.2655 -4.5884 21.8136 0.0858 -2.1112 9.9805 -0.0000 0.0000 0.0000 -86.7773 -0.0248 22.7959 14.4770 -23.4125 -3.0151 -0.0000 0.0000 -3.3151 29.7001 23.4369 12.7822 -7.1250 0.0000 -0.0000 0.5854 56.5009 0.1651 -0.0000 0.0000 0.0000 89.8534 3.3017 0.8663 -10.4273 17.4052 -1.6004 0.0000 0.0000 9.2775 -16.5428 19.1496 -5.5651 7.1250 -0.0000 -0.0000 7.5825 -10.2042 6.1750
-0.2399 18.2030 14.4221 -5.0189 -1.1540 -4.6946 0.0000 0.0000 0.0000 -14.1915 -0.6812 -17.1084 12.9656 18.7697 69.0188 -0.0975 -5.6561 3.3432 0.0582 -1.5572 -4.2833 0.0000 0.0000 0.0000 31.0507 9.4387 -5.4322 -2.0889 -9.0488 25.9480 -0.4060 0.0731 -12.0120 -0.1485 -2.4832 6.8431 3.5053 -0.1463 10.9825 2.7356 0.4302 -0.0891 0.8302 0.1455 -6.2641 -1.5627 -3.3822 -17.4950 1.3338 -4.6229 21.5072 0.1012 -2.1183 9.7806 -0.0000 -0.0000 0.0000 -86.6905 0.3567 22.6999 14.3804 -23.2759 -2.9768 -0.0000 0.0000 -3.5719 29.6316 23.4231 12.7410 -7.1250 0.0000 -0.0000 0.5130 56.4704 0.1443 -0.0000 -0.0000 0.0000 89.7962 3.6246 1.4656 -10.5174 17.5448 -1.6275 0.0000 0.0000 9.5091 -17.0766 19.1125 -5.7437 7.1250 -0.0000 -0.0000 7.2342 -10.1789 5.8903
-0.2313 18.2061 14.5829 -4.9136 -1.1685 -4.5983 0.0000 0.0000 0.0000 -14.3334 -1.1153 -18.1379 12.8403 18.7237 68.6288 -0.0941 -5.4443 1.6159 0.0647 -1.6412 -4.5151 0.0000 0.0000 0.0000 30.9377 9.0237 -5.0745 -2.1011 -9.0736 26.0257 -0.4348 0.2252 -12.3806 -0.1692 -2.6502 7.3064 3.5758 -0.1205 10.7949 2.6271 0.4508 0.0275 0.6714 0.1550 -6.0329 -1.4610 -3.2972 -17.7208 1.3644 -4.5370 21.5136 0.1029 -2.0643 9.8218 -0.0000 0.0000 0.0000 -86.6820 0.3908 22.5304 14.2581 -23.1025 -2.9286 -0.0000 0.0000 -4.0028 29.0605 22.6724 12.0899 -7.1250 0.0000 -0.0000 0.0761 55.5232 0.0197 -0.0000 0.0000 0.0000 89.6277 4.3402 2.1376 -10.5191 17.5474 -1.6280 0.0000 0.0000 9.8114 -18.0568 20.5595 -6.5314 7.1250 -0.0000 -0.0000 6.6785 -8.5694 5.6483
-0.2202 18.1931 14.7241 -4.9248 -1.3163 -4.3780 0.0000 0.0000 0.0000 -14.3171 -1.4816 -19.4067 12.6693 18.6595 68.0951 -0.0798 -5.2880 0.1111 0.0887 -1.9211 -5.2878 0.0000 0.0000 0.0000 30.9545 8.9183 -4.9047 -2.1189 -9.1095 26.1384 -0.4711 0.5405 -12.7891 -0.1709 -2.6633 7.3428 3.7566 -0.0109 10.7752 2.5824 0.6125 0.0886 0.4968 0.2297 -5.9526 -1.4207 -3.3104 -18.1309 1.2960 -4.5474 21.6427 0.0630 -2.0688 9.9414 0.0000 -0.0000 0.0000 -86.7368 0.4142 22.5400 14.1590 -22.9615 -2.8898 -0.0000 0.0000 -4.4985 28.8041 21.5027 11.3950 -7.1250 0.0000 -0.0000 0.0799 54.1881 0.0180 0.0000 -0.0000 0.0000 89.4279 4.7967 3.4314 -10.8550 18.0656 -1.7307 0.0000 0.0000 8.8772 -18.0483 20.6509 -6.5556 7.1250 -0.0000 -0.0000 6.6894 -8.4765 5.6701
-0.2089 18.1916 14.8773 -5.0602 -1.5772 -4.2214 0.0000 0.0000 0.0000 -14.1542 -1.8329 -20.5622 12.4263 18.5651 67.3338 -0.0608 -5.0399 -0.8377 0.0748 -1.7641 -4.8541 0.0000 0.0000 0.0000 31.1008 8.7918 -4.6629 -2.1443 -9.1603 26.2981 -0.5234 1.0002 -13.3574 -0.1687 -2.6459 7.2943 4.0788 0.1275 10.9257 2.5469 0.8510 -0.0626 0.2416 0.3320 -6.1885 -1.4327 -3.3519 -17.8043 1.2345 -4.5888 21.5761 0.0440 -2.0996 9.8560 0.0000 -0.0000 0.0000 -86.7712 1.0202 22.6244 14.0302 -22.7779 -2.8398 -0.0000 0.0000 -5.2195 28.7427 20.3648 10.8055 -7.1250 0.0000 -0.0000 0.2620 52.9254 0.0511 0.0000 -0.0000 0.0000 89.2419 4.7503 4.9909 -11.2768 18.7113 -1.8638 0.0000 0.0000 7.3952 -17.9100 19.8949 -6.2760 7.1250 -0.0000 -0.0000 6.7346 -9.2721 5.6014
-0.2032 18.1938 15.0369 -5.0794 -1.8381 -4.1455 0.0000 0.0000 0.0000 -14.0656 -2.2633 -21.6739 12.0968 18.4313 66.2954 -0.0453 -4.6776 -1.2417 0.0493 -1.4328 -3.9404 0.0000 0.0000 0.0000 31.1701 8.6948 -4.2363 -2.1650 -9.2016 26.4281 -0.5662 1.2409 -13.8415 -0.1474 -2.4745 6.8190 4.1474 0.2217 11.0312 2.5289 0.9944 -0.1454 0.1609 0.3969 -6.3311 -1.6670 -3.3540 -17.3910 1.4502 -4.5813 21.4632 0.1667 -2.0948 9.7509 -0.0000 0.0000 0.0000 -86.8112 1.7208 22.6861 14.0709 -22.8359 -2.8556 -0.0000 0.0000 -6.1934 28.4092 19.4536 10.2120 -7.1250 0.0000 -0.0000 0.0986 51.8585 0.0166 -0.0000 0.0000 0.0000 89.0156 4.8737 6.5109 -11.5784 19.1693 -1.9616 0.0000 0.0000 6.5026 -18.1532 19.9294 -6.3770 7.1250 -0.0000 -0.0000 6.5798 -9.2052 5.4797
-0.1986 18.1730 15.1857 -5.4598 -2.1095 -3.9969 0.0000 0.0000 0.0000 -13.5437 -2.5594 -22.6416 11.7832 18.2975 65.2999 -0.0172 -4.3845 -2.3608 0.1000 -2.0395 -5.6149 0.0000 0.0000 0.0000 31.6688 8.6781 -3.8455 -2.1818 -9.2350 26.5331 -0.6040 1.3621 -14.2765 -0.1173 -2.2085 6.0823 4.5917 0.3099 11.0245 2.5769 1.1695 -0.1075 -0.0661 0.4706 -6.2757 -1.6288 -3.3825 -17.2775 1.4645 -4.6333 21.3360 0.1614 -2.1160 9.6851 0.0000 -0.0000 0.0000 -86.7918 1.9460 22.4369 14.1429 -22.9386 -2.8836 -0.0000 0.0000 -6.2735 28.0538 20.3375 10.4931 -7.1250 0.0000 -0.0000 -0.4497 52.7618 -0.0859 0.0000 -0.0000 0.0000 88.8405 5.2477 7.7310 -11.9132 19.6743 -2.0730 0.0000 0.0000 5.8031 -18.3747 20.3390 -6.5858 7.1250 -0.0000 -0.0000 6.4616 -8.7540 5.4385
-0.1915 18.1576 15.3414 -5.7433 -2.3090 -3.9291 0.0000 0.0000 0.0000 -13.1441 -2.9633 -23.3975 11.4004 18.1255 64.0752 0.0160 -4.0517 -3.4564 0.1267 -2.2947 -6.3208 0.0000 0.0000 0.0000 32.0083 8.3987 -3.3986 -2.1866 -9.2445 26.5631 -0.6408 1.5748 -14.6655 -0.1223 -2.2542 6.2086 4.9003 0.3782 11.0149 2.6636 1.2978 0.0211 -0.1684 0.5294 -6.1254 -1.4555 -3.3419 -17.5548 1.2983 -4.5780 21.2628 0.0786 -2.0936 9.7008 0.0000 -0.0000 0.0000 -86.9607 1.9043 22.0477 14.0874 -22.8595 -2.8620 -0.0000 0.0000 -6.1105 27.7709 21.8023 11.0662 -7.1250 0.0000 -0.0000 -1.0906 54.3037 -0.2494 0.0000 -0.0000 0.0000 88.5780 5.7942 8.8540 -12.2278 20.1454 -2.1801 0.0000 0.0000 5.0528 -18.5149 20.4504 -6.6737 7.1250 -0.0000 -0.0000 6.3785 -8.6203 5.3848
-0.1847 18.1362 15.4949 -6.0853 -2.4628 -3.8645 0.0000 0.0000 0.0000 -12.6659 -3.3356 -24.1425 11.0169 17.9433 62.8364 0.0530 -3.7847 -4.5493 0.1936 -2.8335 -7.8154 0.0000 0.0000 0.0000 32.3743 7.9802 -3.1022 -2.2005 -9.2718 26.6494 -0.6758 1.8703 -15.0050 -0.1672 -2.6347 7.2632 5.2962 0.4263 11.1394 2.7118 1.4207 0.0925 -0.3601 0.5795 -6.1080 -1.3064 -3.2923 -17.9596 1.2237 -4.5316 21.4186 0.0261 -2.0636 9.8247 -0.0000 -0.0000 0.0000 -86.9994 1.9689 21.8623 13.9404 -22.6495 -2.8051 -0.0000 0.0000 -6.3968 27.8431 20.9524 10.6961 -7.1250 0.0000 -0.0000 -0.8078 53.3928 -0.1668 -0.0000 -0.0000 0.0000 88.4512 6.2247 9.8558 -12.5749 20.6612 -2.3011 0.0000 0.0000 4.5864 -18.7259 19.9237 -6.5894 7.1250 -0.0000 -0.0000 6.2105 -9.1358 5.1770
-0.1782 18.1286 15.6440 -6.4355 -2.5387 -3.8171 0.0000 0.0000 0.0000 -12.1912 -3.7827 -24.7310 10.5491 17.7073 61.3083 0.0867 -3.4124 -5.4029 0.1713 -2.6659 -7.3499 0.0000 0.0000 0.0000 32.8554 8.0455 -2.5686 -2.2083 -9.2871 26.6977 -0.7178 1.7115 -15.5152 -0.2092 -2.9451 8.1260 5.7166 0.4572 11.4015 2.7493 1.5429 0.0401 -0.5787 0.6219 -6.2976 -1.3745 -3.2994 -17.7966 1.2909 -4.5386 21.3563 0.0631 -2.0664 9.7759 0.0000 0.0000 0.0000 -86.9945 2.2712 21.5789 13.7897 -22.4332 -2.7473 -0.0000 0.0000 -6.3178 27.9418 19.4860 10.0336 -7.1250 0.0000 -0.0000 -0.3869 51.8072 -0.0649 0.0000 0.0000 0.0000 88.2733 6.3496 10.9690 -13.0028 21.2914 -2.4543 0.0000 0.0000 3.9082 -18.2819 18.8435 -6.0906 7.1250 -0.0000 -0.0000 6.4373 -10.3087 5.2153
-0.1690 18.1104 15.7933 -6.6196 -2.6854 -3.7270 0.0000 0.0000 0.0000 -11.9095 -4.0997 -25.0564 10.0510 17.4384 59.6587 0.1211 -2.5807 -6.1866 0.0242 -1.0048 -2.7621 0.0000 0.0000 0.0000 33.1125 8.0101 -2.1293 -2.2165 -9.3033 26.7487 -0.7666 1.8247 -16.0232 -0.2000 -2.8794 7.9431 5.9640 0.4902 11.6950 2.7576 1.6545 -0.1144 -0.7310 0.6582 -6.6167 -1.4868 -3.2967 -17.5713 1.3951 -4.5325 21.3949 0.1221 -2.0622 9.7533 -0.0000 -0.0000 0.0000 -86.9634 2.8280 21.3700 13.8740 -22.5542 -2.7796 -0.0000 0.0000 -5.8366 27.9287 21.1110 10.8096 -7.1250 0.0000 -0.0000 -0.7551 53.5827 -0.1594 -0.0000 -0.0000 0.0000 88.0412 6.4786 11.8535 -13.1721 21.5389 -2.5161 0.0000 0.0000 3.1374 -18.2655 18.7838 -6.0664 7.1250 -0.0000 -0.0000 6.4449 -10.3723 5.2131
-0.1552 18.1066 15.9496 -6.4454 -2.8505 -3.5149 0.0000 0.0000 0.0000 -12.0599 -4.4652 -25.4881 9.4463 17.0865 57.6210 0.1564 -1.6527 -7.0761 0.0954 -1.9921 -5.4840 0.0000 0.0000 0.0000 32.9031 7.8460 -1.7974 -2.2099 -9.2903 26.7076 -0.8072 2.0772 -16.3988 -0.1745 -2.6911 7.4199 5.9223 0.6320 11.6072 2.6344 1.8219 -0.1250 -0.8645 0.7405 -6.5659 -1.3342 -3.3544 -17.6292 1.2693 -4.6231 21.3531 0.0404 -2.1061 9.7433 0.0000 -0.0000 0.0000 -86.9577 2.9143 21.0781 13.9596 -22.6770 -2.8125 -0.0000 0.0000 -4.7934 27.8586 25.7515 12.9330 -7.1250 0.0000 -0.0000 -2.1944 58.5836 -0.7291 0.0000 -0.0000 0.0000 87.8936 6.8745 12.2199 -13.3061 21.7341 -2.5655 0.0000 0.0000 2.6402 -18.9560 19.6566 -6.5905 7.1250 -0.0000 -0.0000 6.0459 -9.3816 5.0082
-0.1411 18.1061 16.1112 -6.3807 -3.0766 -3.4028 0.0000 0.0000 0.0000 -12.0740 -4.8372 -25.7201 8.7921 16.6720 55.3682 0.1722 -0.5316 -7.6661 0.0935 -1.9720 -5.4284 0.0000 0.0000 0.0000 32.8529 7.7792 -1.3094 -2.2094 -9.2893 26.7044 -0.8545 2.2240 -16.8568 -0.1794 -2.7280 7.5224 5.9356 0.7249 11.4374 2.6175 1.9263 -0.0381 -0.9035 0.7972 -6.3702 -1.3588 -3.3380 -17.5306 1.1975 -4.5719 21.1908 0.0297 -2.0950 9.6656 -0.0000 -0.0000 0.0000 -87.0766 3.0123 20.7181 13.6274 -22.1995 -2.6857 -0.0000 0.0000 -4.9547 27.7519 23.3510 11.7804 -7.1250 0.0000 -0.0000 -1.5328 55.9781 -0.4129 -0.0000 -0.0000 0.0000 87.6563 7.1865 13.0539 -13.6336 22.2084 -2.6880 0.0000 0.0000 2.0187 -19.5610 20.2687 -7.0173 7.1250 -0.0000 -0.0000 5.6958 -8.6650 4.7971
